<mxfile host="app.diagrams.net" modified="2023-11-29T08:35:08.479Z" agent="Mozilla/5.0 (Windows NT 10.0; Win64; x64) AppleWebKit/537.36 (KHTML, like Gecko) Chrome/119.0.0.0 Safari/537.36" version="22.1.4" etag="M0oU2tr0Yf3MLrb2BgB0" type="github">
  <diagram name="第 1 页" id="6I3CrAk-lAjTMZBFa6Vu">
    <mxGraphModel>
      <root>
        <mxCell id="0" />
        <mxCell id="1" parent="0" />
      </root>
    </mxGraphModel>
  </diagram>
</mxfile>
